# xmcd
#
# Track frame offsets: 
#        150
#        26390
#        53154
#        74708
#        95313
#        117992
#        139099
#        161871
#        188374
#        202039
#        226360
#        245504
#        266144
#        293120
#        310528
#        331939
#
# Disc length: 4656 seconds
#
# Revision: 1
# Processed by: cddbd v1.5.2PL0 Copyright (c) Steve Scherf et al.
# Submitted via: ExactAudioCopy v0.95b4
#
DISCID=e6122e10
DTITLE=Teddy Pendergrass - Teddy
DYEAR=1979
DGENRE=R&B
TTITLE0=Come Go With Me
TTITLE1=Turn Off The Lights
TTITLE2=I'll Never See Heaven Again
TTITLE3=All I Need Is You
TTITLE4=If You Know Like I Know
TTITLE5=Do Me
TTITLE6=Set Me Free
TTITLE7=Life Is A Circle
TTITLE8=I Can't Live Without Your Love
TTITLE9=You're My Latest My Greatest Inspiration
TTITLE10=Nine Times Out Of Ten
TTITLE11=Keep On Lovin' Me
TTITLE12=It's Time for Love
TTITLE13=She's Over Me
TTITLE14=I Can't Leave Your Love Again
TTITLE15=You Must Live On
EXTD=YEAR: 1981
EXTT0=
EXTT1=
EXTT2=
EXTT3=
EXTT4=
EXTT5=
EXTT6=
EXTT7=
EXTT8=
EXTT9=
EXTT10=
EXTT11=
EXTT12=
EXTT13=
EXTT14=
EXTT15=
PLAYORDER=
